<?xml version="1.0" encoding="UTF-8"?>
<!DOCTYPE svg PUBLIC "-//W3C//DTD SVG 1.1//EN" "http://www.w3.org/Graphics/SVG/1.1/DTD/svg11.dtd">
<!-- Creator: CorelDRAW 2021 (64-Bit) -->
<svg xmlns="http://www.w3.org/2000/svg" xml:space="preserve" width="22.0071mm" height="13.7781mm" version="1.1" style="shape-rendering:geometricPrecision; text-rendering:geometricPrecision; image-rendering:optimizeQuality; fill-rule:evenodd; clip-rule:evenodd"
viewBox="0 0 178.46 111.73"
 xmlns:xlink="http://www.w3.org/1999/xlink"
 xmlns:xodm="http://www.corel.com/coreldraw/odm/2003">
 <defs>
  <style type="text/css">
   <![CDATA[
    .fil0 {fill:#E6D7B6;fill-rule:nonzero}
   ]]>
  </style>
 </defs>
 <g id="Layer_x0020_1">
  <metadata id="CorelCorpID_0Corel-Layer"/>
  <path class="fil0" d="M16.38 58.12c-3.28,0 -6.36,-0.61 -9.24,-1.83 -2.89,-1.22 -5.27,-2.93 -7.14,-5.11l6.08 -6.16c2.6,2.91 6.01,4.37 10.22,4.37 3.38,0 5.07,-0.94 5.07,-2.81 0,-1.04 -0.45,-1.85 -1.36,-2.42 -0.91,-0.57 -2.09,-1.05 -3.55,-1.44 -1.46,-0.39 -2.99,-0.83 -4.6,-1.33 -1.61,-0.49 -3.13,-1.14 -4.56,-1.95 -1.43,-0.81 -2.6,-1.92 -3.51,-3.35 -0.91,-1.43 -1.36,-3.29 -1.36,-5.58 0,-3.59 1.3,-6.46 3.9,-8.62 2.6,-2.16 6.14,-3.24 10.61,-3.24 3.12,0 5.94,0.55 8.46,1.64 2.52,1.09 4.62,2.73 6.28,4.92l-6.16 6.16c-1.14,-1.4 -2.43,-2.42 -3.86,-3.04 -1.43,-0.62 -2.98,-0.94 -4.64,-0.94 -3.12,0 -4.68,0.88 -4.68,2.65 0,0.94 0.45,1.66 1.37,2.18 0.91,0.52 2.08,0.98 3.51,1.37 1.43,0.39 2.95,0.83 4.56,1.33 1.61,0.49 3.13,1.17 4.56,2.03 1.43,0.86 2.6,2.03 3.51,3.51 0.91,1.48 1.36,3.37 1.36,5.66 0,3.74 -1.33,6.68 -3.98,8.81 -2.65,2.13 -6.27,3.2 -10.84,3.2zm25.71 -0.86l0 -28.71 -8.82 0 0 -8.97 8.82 0 0 -15.68 10.22 0 0 15.68 8.82 0 0 8.97 -8.82 0 0 28.71 -10.22 0zm38.11 0.78c-3.43,0 -6.51,-0.86 -9.24,-2.57 -2.73,-1.72 -4.89,-4.06 -6.47,-7.02 -1.59,-2.96 -2.38,-6.29 -2.38,-9.99 0,-3.69 0.79,-7.03 2.38,-10.02 1.59,-2.99 3.74,-5.34 6.47,-7.06 2.73,-1.72 5.79,-2.57 9.17,-2.57 2.24,0 4.3,0.39 6.2,1.17 1.9,0.78 3.5,1.85 4.8,3.2l0 -3.59 10.14 0 0 37.68 -10.14 0 0 -3.59c-1.3,1.35 -2.89,2.42 -4.76,3.2 -1.87,0.78 -3.93,1.17 -6.16,1.17zm1.87 -9.44c2.86,0 5.17,-0.95 6.94,-2.85 1.77,-1.9 2.65,-4.36 2.65,-7.37 0,-2.96 -0.88,-5.4 -2.65,-7.29 -1.77,-1.9 -4.08,-2.85 -6.94,-2.85 -2.81,0 -5.1,0.95 -6.86,2.85 -1.77,1.9 -2.65,4.33 -2.65,7.29 0,3.02 0.88,5.47 2.65,7.37 1.77,1.9 4.06,2.85 6.86,2.85zm-78.64 62.35l0 -37.68 10.22 0 0 3.35c1.14,-1.3 2.52,-2.31 4.13,-3.04 1.61,-0.73 3.48,-1.09 5.62,-1.09 3.64,0 6.61,1.27 8.89,3.82l-6.4 7.33c-1.25,-1.25 -2.86,-1.87 -4.84,-1.87 -2.24,0 -4.03,0.69 -5.38,2.07 -1.35,1.38 -2.03,3.47 -2.03,6.28l0 20.83 -10.22 0zm47.63 0.78c-3.8,0 -7.22,-0.87 -10.26,-2.61 -3.04,-1.74 -5.46,-4.1 -7.25,-7.06 -1.79,-2.96 -2.69,-6.32 -2.69,-10.06 0,-3.64 0.88,-6.94 2.65,-9.91 1.77,-2.96 4.17,-5.32 7.22,-7.06 3.04,-1.74 6.46,-2.61 10.26,-2.61 3.8,0 7.23,0.87 10.3,2.61 3.07,1.74 5.49,4.08 7.26,7.02 1.77,2.94 2.65,6.25 2.65,9.95 0,3.74 -0.88,7.11 -2.65,10.1 -1.77,2.99 -4.17,5.34 -7.22,7.06 -3.04,1.72 -6.46,2.57 -10.26,2.57zm-0.08 -9.52c2.91,0 5.27,-0.95 7.06,-2.85 1.79,-1.9 2.69,-4.33 2.69,-7.29 0,-2.96 -0.91,-5.38 -2.73,-7.25 -1.82,-1.87 -4.16,-2.81 -7.02,-2.81 -2.81,0 -5.12,0.95 -6.94,2.85 -1.82,1.9 -2.73,4.3 -2.73,7.22 0,2.96 0.91,5.4 2.73,7.29 1.82,1.9 4.13,2.85 6.94,2.85zm42.95 9.52c-3.8,0 -7.22,-0.87 -10.26,-2.61 -3.04,-1.74 -5.46,-4.1 -7.25,-7.06 -1.79,-2.96 -2.69,-6.32 -2.69,-10.06 0,-3.64 0.88,-6.94 2.65,-9.91 1.77,-2.96 4.17,-5.32 7.22,-7.06 3.04,-1.74 6.46,-2.61 10.26,-2.61 3.8,0 7.23,0.87 10.3,2.61 3.07,1.74 5.49,4.08 7.26,7.02 1.77,2.94 2.65,6.25 2.65,9.95 0,3.74 -0.88,7.11 -2.65,10.1 -1.77,2.99 -4.17,5.34 -7.22,7.06 -3.04,1.72 -6.46,2.57 -10.26,2.57zm-0.08 -9.52c2.91,0 5.27,-0.95 7.06,-2.85 1.79,-1.9 2.69,-4.33 2.69,-7.29 0,-2.96 -0.91,-5.38 -2.73,-7.25 -1.82,-1.87 -4.16,-2.81 -7.02,-2.81 -2.81,0 -5.12,0.95 -6.94,2.85 -1.82,1.9 -2.73,4.3 -2.73,7.22 0,2.96 0.91,5.4 2.73,7.29 1.82,1.9 4.13,2.85 6.94,2.85zm25.24 8.74l0 -37.68 10.22 0 0 3.28c2.7,-2.7 6.22,-4.06 10.53,-4.06 2.39,0 4.59,0.49 6.59,1.48 2,0.99 3.63,2.39 4.88,4.21 1.46,-1.82 3.24,-3.22 5.34,-4.21 2.11,-0.99 4.43,-1.48 6.98,-1.48 2.76,0 5.25,0.59 7.49,1.76 2.24,1.17 4.02,2.85 5.34,5.03 1.33,2.18 1.99,4.78 1.99,7.8l0 23.87 -10.22 0 0 -22.23c0,-2.18 -0.69,-3.89 -2.07,-5.11 -1.38,-1.22 -3.08,-1.83 -5.11,-1.83 -2.03,0 -3.73,0.61 -5.11,1.83 -1.38,1.22 -2.07,2.93 -2.07,5.11l0 22.23 -10.22 0 0 -22.23c0,-2.18 -0.69,-3.89 -2.07,-5.11 -1.38,-1.22 -3.08,-1.83 -5.11,-1.83 -2.03,0 -3.73,0.61 -5.11,1.83 -1.38,1.22 -2.07,2.93 -2.07,5.11l0 22.23 -10.22 0zm-5.31 -53.69l0 -28.71 -8.74 0 0 -8.97 8.74 0 0 -4.06c0,-2.96 0.65,-5.62 1.95,-7.96 1.3,-2.34 3.15,-4.19 5.54,-5.54 2.39,-1.35 5.2,-2.03 8.43,-2.03 2.39,0 4.49,0.42 6.28,1.25 1.79,0.83 3.39,1.98 4.8,3.43l-6.48 6.55c-0.57,-0.57 -1.21,-1.01 -1.91,-1.33 -0.7,-0.31 -1.55,-0.47 -2.53,-0.47 -1.87,0 -3.32,0.51 -4.33,1.52 -1.01,1.01 -1.52,2.46 -1.52,4.33l0 4.29 11.16 0 0 8.97 -11.16 0 0 28.71 -10.22 0zm28.99 0l0 -28.71 -8.74 0 0 -8.97 8.74 0 0 -4.06c0,-2.96 0.65,-5.62 1.95,-7.96 1.3,-2.34 3.15,-4.19 5.54,-5.54 2.39,-1.35 5.2,-2.03 8.43,-2.03 2.39,0 4.49,0.42 6.28,1.25 1.79,0.83 3.39,1.98 4.8,3.43l-6.48 6.55c-0.57,-0.57 -1.21,-1.01 -1.91,-1.33 -0.7,-0.31 -1.55,-0.47 -2.53,-0.47 -1.87,0 -3.32,0.51 -4.33,1.52 -1.01,1.01 -1.52,2.46 -1.52,4.33l0 4.29 11.16 0 0 8.97 -11.16 0 0 28.71 -10.22 0z"/>
 </g>
</svg>
